<svg width="38" height="21" viewBox="0 0 38 21" fill="none" xmlns="http://www.w3.org/2000/svg">
    <path d="M19.0318 19.7969L30.1648 10.8905C30.6931 10.4665 30.6931 9.57498 30.1648 9.15097L19.0318 0.244599C18.5512 -0.139191 17.8511 -0.0608896 17.4662 0.41857C17.0792 0.901295 17.1618 1.60037 17.6402 1.98416L27.687 10.0207L17.6402 18.0573C17.1592 18.4448 17.0838 19.1441 17.4662 19.6229C17.8511 20.1025 18.5512 20.1807 19.0318 19.7969Z" fill="url(#paint0_linear_7_258)"/>
    <path d="M11.8288 19.7972L22.9617 10.8908C23.4901 10.4668 23.4901 9.57525 22.9617 9.1513L11.8288 0.244935C11.1007 -0.336577 10.0197 0.182886 10.0197 1.11472V4.4546L1.1133 4.4546C0.49794 4.4546 0 4.95254 0 5.5679V14.4743C0 15.0896 0.49794 15.5876 1.1133 15.5876L10.0197 15.5876V18.9275C10.0197 19.8593 11.1007 20.3787 11.8288 19.7972ZM24.9052 0.418906C24.5192 0.901632 24.5997 1.60071 25.0791 1.9845L35.126 10.0211L25.0791 18.0577C24.5981 18.4452 24.5227 19.1445 24.9052 19.6233C25.2901 20.1027 25.9902 20.181 26.4708 19.7972L37.6037 10.8909C38.1321 10.4668 38.1321 9.57532 37.6037 9.15138L26.4708 0.24501C25.9902 -0.138855 25.29 -0.060553 24.9052 0.418906Z" fill="url(#paint1_linear_7_258)"/>
    <defs>
        <linearGradient id="paint0_linear_7_258" x1="17.2216" y1="10.0208" x2="30.561" y2="10.0208" gradientUnits="userSpaceOnUse">
            <stop stop-color="#578FCA"/>
            <stop offset="0.997" stop-color="#363853"/>
        </linearGradient>
        <linearGradient id="paint1_linear_7_258" x1="0" y1="10.0211" x2="38" y2="10.0211" gradientUnits="userSpaceOnUse">
            <stop stop-color="#3674B5"/>
            <stop offset="1" stop-color="#363853"/>
        </linearGradient>
    </defs>
</svg>
