<svg width="25" height="25" viewBox="0 0 25 25" fill="none" xmlns="http://www.w3.org/2000/svg">
    <path d="M7.45779 12.691V9.81201M12.5078 13.2581L11.6786 12.4288C11.6555 12.4057 11.628 12.3874 11.5978 12.3749C11.5676 12.3624 11.5353 12.3559 11.5026 12.3559C11.4699 12.3559 11.4375 12.3624 11.4074 12.3749C11.3772 12.3874 11.3497 12.4057 11.3266 12.4288L10.5853 13.1701C10.5622 13.1932 10.5439 13.2207 10.5314 13.2509C10.5189 13.2811 10.5124 13.3134 10.5124 13.3461C10.5124 13.3788 10.5189 13.4111 10.5314 13.4413C10.5439 13.4715 10.5622 13.499 10.5853 13.5221L12.0679 15.0047C12.3595 15.2962 12.8322 15.2962 13.1238 15.0047L15.153 12.9754C15.1761 12.9523 15.1944 12.9249 15.207 12.8947C15.2195 12.8645 15.2259 12.8321 15.2259 12.7995C15.2259 12.7668 15.2195 12.7344 15.207 12.7042C15.1944 12.674 15.1761 12.6466 15.153 12.6235L14.4117 11.8822C14.3886 11.8591 14.3612 11.8407 14.331 11.8282C14.3008 11.8157 14.2684 11.8093 14.2357 11.8093C14.2031 11.8093 14.1707 11.8157 14.1405 11.8282C14.1103 11.8407 14.0829 11.8591 14.0598 11.8822L12.6839 13.2581C12.6723 13.2697 12.6586 13.2788 12.6435 13.2851C12.6284 13.2914 12.6122 13.2946 12.5958 13.2946C12.5795 13.2946 12.5633 13.2914 12.5482 13.2851C12.5331 13.2788 12.5194 13.2697 12.5078 13.2581Z" stroke="#3674B5" stroke-miterlimit="10" stroke-linecap="round" stroke-linejoin="round"/>
    <path d="M18.2804 9.81201V16.2981C18.2804 16.9854 17.7233 17.5425 17.0361 17.5425H8.70212C8.01491 17.5425 7.45779 16.9854 7.45779 16.2981V14.3811" stroke="#3674B5" stroke-miterlimit="10" stroke-linecap="round" stroke-linejoin="round"/>
    <path d="M3.39599 5.38093C5.50519 2.42628 8.9622 0.5 12.8691 0.5C19.2929 0.5 24.5003 5.70747 24.5003 12.1312C24.5003 18.5549 19.2929 23.7624 12.8691 23.7624C7.93348 23.7624 3.71586 20.6881 2.02664 16.35C1.97574 16.2192 2.04199 16.0719 2.17387 16.0239L3.89183 15.3986C3.95284 15.3763 4.02013 15.3788 4.07935 15.4054C4.13857 15.4321 4.18504 15.4808 4.20885 15.5412C5.56922 18.9932 8.9339 21.4361 12.8691 21.4361C18.0081 21.4361 22.1741 17.2702 22.1741 12.1311C22.1741 6.99207 18.0081 2.82621 12.8691 2.82621C8.47196 2.82621 4.78726 5.87629 3.81505 9.97613C3.80771 10.0077 3.81295 10.041 3.82967 10.0688C3.84639 10.0966 3.87326 10.1168 3.90462 10.1252L4.76133 10.3548C4.85096 10.3788 4.88399 10.4887 4.82242 10.5582L1.83652 13.9254C1.70005 14.0793 1.44644 14.0114 1.4052 13.8099L0.502951 9.40076C0.48436 9.30988 0.567901 9.23117 0.657527 9.25517L1.41514 9.45818C1.43122 9.46246 1.44799 9.46347 1.46446 9.46117C1.48093 9.45887 1.49678 9.45329 1.51106 9.44476C1.52535 9.43624 1.53778 9.42494 1.54763 9.41154C1.55748 9.39814 1.56455 9.3829 1.56842 9.36672C1.78099 8.49499 2.09439 7.65099 2.50229 6.85179" stroke="#3674B5" stroke-miterlimit="10" stroke-linecap="round" stroke-linejoin="round"/>
    <path d="M16.3478 9.81191H18.2804V8.73713C18.2804 8.04991 17.7233 7.4928 17.0361 7.4928H8.70212C8.01491 7.4928 7.45779 8.04991 7.45779 8.73713V9.81191H14.6577M9.3904 8.26582V6.71973M11.7096 8.26582V6.71973M14.0287 8.26582V6.71973M16.3478 8.26582V6.71973" stroke="#3674B5" stroke-miterlimit="10" stroke-linecap="round" stroke-linejoin="round"/>
</svg>
