<svg width="21" height="24" viewBox="0 0 21 24" fill="none" xmlns="http://www.w3.org/2000/svg">
    <path fill-rule="evenodd" clip-rule="evenodd" d="M10.2857 0C10.5257 0 10.7554 0.102857 10.9143 0.282286L14.4571 4.25943C14.5304 4.34158 14.5866 4.4374 14.6226 4.54138C14.6587 4.64535 14.6738 4.75543 14.6671 4.86527C14.6604 4.97511 14.632 5.08254 14.5836 5.18137C14.5353 5.28021 14.4678 5.36849 14.3851 5.44114C14.2179 5.58849 13.9991 5.66363 13.7766 5.65014C13.5541 5.63665 13.346 5.53562 13.1977 5.36914L11.1269 3.04343V13.7634C11.1269 14.2251 10.7497 14.6 10.2857 14.6C10.1755 14.6003 10.0662 14.5789 9.96426 14.5369C9.8623 14.495 9.7696 14.4333 9.69148 14.3555C9.61336 14.2777 9.55134 14.1853 9.50897 14.0835C9.46661 13.9817 9.44472 13.8725 9.44457 13.7623V3.04343L7.37371 5.36914C7.22544 5.53596 7.01709 5.63721 6.7943 5.65071C6.57152 5.66421 6.35247 5.58885 6.18514 5.44114C6.10257 5.36841 6.03521 5.28007 5.98692 5.18119C5.93864 5.08232 5.91039 4.97487 5.9038 4.86503C5.89722 4.75519 5.91242 4.64514 5.94855 4.5412C5.98467 4.43727 6.041 4.34151 6.11429 4.25943L9.65714 0.282286C9.73614 0.193638 9.83297 0.122671 9.94129 0.0740257C10.0496 0.0253809 10.167 0.000155437 10.2857 0ZM0 13.528C0 10.5989 2.38514 8.22514 5.32686 8.22514H5.8C6.264 8.22514 6.64114 8.6 6.64114 9.06286C6.64114 9.52457 6.264 9.89943 5.8 9.89943H5.32571C4.84815 9.89838 4.37506 9.9914 3.93345 10.1732C3.49184 10.355 3.09035 10.622 2.75192 10.9589C2.41349 11.2958 2.14474 11.6961 1.96102 12.137C1.77729 12.5778 1.68219 13.0504 1.68114 13.528V18.6971C1.68219 19.1748 1.77733 19.6476 1.96113 20.0885C2.14493 20.5293 2.41378 20.9297 2.75233 21.2667C3.09088 21.6036 3.4925 21.8706 3.93424 22.0523C4.37598 22.234 4.8492 22.3269 5.32686 22.3257H15.2434C15.721 22.3268 16.1941 22.2337 16.6357 22.052C17.0773 21.8702 17.4788 21.6032 17.8172 21.2662C18.1556 20.9293 18.4244 20.529 18.6081 20.0882C18.7918 19.6474 18.8869 19.1747 18.888 18.6971V13.528C18.8869 13.0503 18.7918 12.5776 18.608 12.1367C18.4242 11.6958 18.1554 11.2955 17.8168 10.9585C17.4783 10.6215 17.0766 10.3546 16.6349 10.1729C16.1932 9.99114 15.7199 9.89823 15.2423 9.89943H14.7703C14.6601 9.89973 14.551 9.87833 14.4491 9.83645C14.3472 9.79457 14.2546 9.73303 14.1765 9.65535C14.0983 9.57767 14.0363 9.48536 13.9939 9.3837C13.9514 9.28204 13.9294 9.17302 13.9291 9.06286C13.9291 8.6 14.3063 8.22514 14.7703 8.22514H15.2434C18.1851 8.22514 20.5703 10.5989 20.5703 13.528V18.6971C20.5703 21.6263 18.1851 24 15.2434 24H5.32571C2.38514 24 0 21.6263 0 18.6971V13.528Z" fill="#3674B5"/>
</svg>
